<svg width="128" height="128" viewBox="0 0 40 40" fill="none" xmlns="http://www.w3.org/2000/svg" role="img" aria-label="AnemIA">
  <defs>
    <linearGradient id="g" x1="6" y1="3" x2="34" y2="37" gradientUnits="userSpaceOnUse">
      <stop stop-color="#2dd4bf"/>
      <stop offset="0.55" stop-color="#0d9488"/>
      <stop offset="1" stop-color="#0f5e58"/>
    </linearGradient>
    <radialGradient id="glow" cx="0.32" cy="0.24" r="0.85">
      <stop stop-color="#ffffff" stop-opacity="0.32"/>
      <stop offset="1" stop-color="#ffffff" stop-opacity="0"/>
    </radialGradient>
  </defs>
  <rect x="1.5" y="1.5" width="37" height="37" rx="11.5" fill="url(#g)"/>
  <rect x="1.5" y="1.5" width="37" height="37" rx="11.5" fill="url(#glow)"/>
  <rect x="2.25" y="2.25" width="35.5" height="35.5" rx="10.75" fill="none" stroke="#ffffff" stroke-opacity="0.18" stroke-width="1"/>
  <path d="M27 5.4c3.7 5 5.9 7.8 5.9 10.5a5.9 5.9 0 1 1-11.8 0c0-2.7 2.2-5.5 5.9-10.5Z" fill="#ffffff"/>
  <circle cx="24.7" cy="15.6" r="1.7" fill="#0d9488" fill-opacity="0.18"/>
  <path d="M4 30.2H10l2.1-3.8 2.7 8.6 2.5-12.4 2.1 7.7H33" fill="none" stroke="#ffffff" stroke-width="2.1" stroke-linecap="round" stroke-linejoin="round"/>
  <circle cx="4" cy="30.2" r="2.1" fill="#ccfbf1"/>
  <circle cx="4" cy="30.2" r="0.9" fill="#0f766e"/>
</svg>
